<svg xmlns="http://www.w3.org/2000/svg" width="24" height="24" fill="none" viewBox="0 0 24 24">
    <path fill="#25265E" d="M19.87 8.6c-.074-.171-.195-.318-.348-.424-.154-.106-.335-.167-.521-.176h-4.58l1.27-4.74c.04-.148.046-.304.016-.455-.029-.15-.093-.293-.186-.415-.093-.12-.213-.219-.35-.287-.137-.067-.287-.103-.44-.103h-7c-.226-.008-.448.061-.63.196-.18.134-.312.326-.37.544l-2.68 10c-.04.148-.046.304-.017.455.03.15.094.293.187.415.094.123.215.221.354.289.139.068.291.102.446.101h3.87l-1.81 6.74c-.06.217-.044.448.045.656.088.207.244.378.442.486.198.107.426.145.648.107.222-.039.425-.151.575-.319l10.9-12c.13-.142.216-.319.248-.508.032-.19.008-.385-.068-.562zm-9.79 8.68l1.07-4c.041-.148.047-.304.018-.455-.03-.15-.094-.293-.187-.415-.093-.12-.213-.219-.35-.287-.137-.067-.287-.102-.44-.103H6.35L8.49 4h4.93l-1.27 4.74c-.04.151-.046.31-.014.463.032.153.099.297.196.42.097.122.222.22.364.286.142.065.298.096.454.091h3.57l-6.64 7.28z"/>
</svg>
