<svg xmlns="http://www.w3.org/2000/svg" width="24" height="24" fill="none" viewBox="0 0 24 24">
    <path fill="#25265E" d="M22 2H2c-.265 0-.52.105-.707.292C1.105 2.48 1 2.734 1 3v8c0 .265.105.52.293.707.187.187.442.292.707.292h3v9c0 .266.105.52.293.708.187.187.442.293.707.293h12c.265 0 .52-.106.707-.293.188-.188.293-.442.293-.707v-9h3c.265 0 .52-.106.707-.293.188-.188.293-.442.293-.708V3c0-.265-.105-.52-.293-.707C22.52 2.105 22.265 2 22 2zM7 20v-2c.53 0 1.04.21 1.414.585C8.79 18.96 9 19.47 9 20H7zm10 0h-2c0-.53.21-1.04.586-1.415C15.96 18.21 16.47 18 17 18v2zm0-4c-1.06 0-2.078.42-2.828 1.171C13.422 17.921 13 18.94 13 20h-2c0-1.061-.421-2.079-1.172-2.829C9.078 16.421 8.061 16 7 16V8h10v8zm4-6h-2V7c0-.266-.105-.52-.293-.708C18.52 6.105 18.265 6 18 6H6c-.265 0-.52.105-.707.292C5.105 6.48 5 6.734 5 7v3H3V4h18v6zm-9 5c.593 0 1.173-.176 1.667-.506.493-.33.878-.798 1.105-1.346.227-.549.286-1.152.17-1.734-.115-.582-.401-1.116-.82-1.536-.42-.42-.955-.705-1.537-.82-.582-.117-1.185-.057-1.733.17s-1.017.611-1.346 1.105c-.33.493-.506 1.073-.506 1.666 0 .796.316 1.56.879 2.122.562.562 1.325.878 2.121.878zm0-4c.198 0 .391.058.556.168.164.11.292.266.368.449.076.183.095.384.057.578-.039.194-.134.372-.274.512s-.318.235-.512.273c-.194.039-.395.02-.578-.057-.182-.075-.339-.204-.449-.368-.11-.164-.168-.358-.168-.556 0-.265.105-.52.293-.707.187-.187.442-.293.707-.293z"/>
</svg>
