<svg xmlns="http://www.w3.org/2000/svg" width="26" height="26" fill="none" viewBox="0 0 26 26">
    <path fill="#21275F" d="M7.583 4.333v17.334h10.833V4.332H7.583zM6.499 2.166h13c.288 0 .563.115.766.318.204.203.318.479.318.766v19.5c0 .287-.114.563-.318.766-.203.203-.478.317-.766.317h-13c-.287 0-.563-.114-.766-.317-.203-.203-.317-.479-.317-.766V3.25c0-.287.114-.563.317-.766.203-.203.479-.317.766-.317zm6.5 16.25c.288 0 .563.115.766.318.204.203.318.478.318.766 0 .287-.114.563-.318.766-.203.203-.478.317-.766.317-.287 0-.563-.114-.766-.317-.203-.203-.317-.479-.317-.766 0-.288.114-.563.317-.766.204-.203.479-.318.766-.318z"/>
</svg>
