<svg xmlns="http://www.w3.org/2000/svg" width="24" height="24" fill="none" viewBox="0 0 24 24">
    <path fill="#21275F" d="M12 2c-1.939.004-3.836.571-5.458 1.634-1.623 1.062-2.902 2.574-3.68 4.35-.78 1.776-1.025 3.74-.707 5.654.317 1.913 1.184 3.693 2.496 5.122.936 1.015 2.072 1.825 3.337 2.38 1.265.553 2.631.84 4.013.84 1.38 0 2.747-.287 4.012-.84 1.265-.555 2.401-1.365 3.337-2.38 1.312-1.43 2.179-3.209 2.496-5.122.318-1.914.073-3.878-.706-5.654-.78-1.776-2.058-3.288-3.68-4.35C15.836 2.57 13.94 2.004 12 2zm0 18c-2.071-.003-4.06-.81-5.55-2.25.453-1.1 1.222-2.042 2.21-2.704.988-.662 2.15-1.016 3.34-1.016s2.353.354 3.341 1.016c.989.662 1.758 1.604 2.21 2.704-1.49 1.44-3.479 2.247-5.55 2.25zm-2-10c0-.396.118-.782.338-1.111.22-.329.532-.585.897-.737.366-.151.768-.19 1.156-.114.388.078.744.268 1.024.548s.47.636.547 1.024c.077.388.038.79-.114 1.155-.151.366-.407.678-.736.898-.33.22-.716.337-1.111.337-.53 0-1.04-.21-1.415-.586-.375-.375-.585-.884-.585-1.414zm8.91 6c-.893-1.528-2.268-2.717-3.91-3.38.51-.577.841-1.29.956-2.05.114-.762.007-1.54-.31-2.242-.316-.701-.829-1.296-1.476-1.714-.646-.418-1.4-.64-2.17-.64s-1.523.222-2.17.64c-.646.418-1.158 1.013-1.475 1.715-.317.701-.424 1.48-.31 2.24.115.762.446 1.474.956 2.051-1.642.663-3.017 1.852-3.91 3.38-.713-1.213-1.089-2.594-1.09-4 0-2.122.842-4.157 2.343-5.657C7.844 4.843 9.879 4 12 4c2.121 0 4.156.843 5.656 2.343S20 9.878 20 12c-.001 1.406-.377 2.787-1.09 4z"/>
</svg>
