<svg xmlns="http://www.w3.org/2000/svg" width="24" height="24" fill="none" viewBox="0 0 24 24">
    <path fill="#25265E" d="M21 2.992v18.016c-.002.263-.107.514-.293.7-.186.185-.437.29-.7.292H3.993c-.263 0-.516-.105-.702-.29-.186-.187-.29-.439-.291-.702V2.992c.002-.263.107-.514.293-.7.186-.185.437-.29.7-.292h16.014c.548 0 .993.444.993.992zM19 4H5v16h14V4z"/>
    <path fill="#25265E" d="M8.5 14H14c.133 0 .26-.053.354-.146.093-.094.146-.221.146-.354 0-.133-.053-.26-.146-.354C14.26 13.053 14.133 13 14 13h-4c-.663 0-1.299-.263-1.768-.732-.469-.47-.732-1.105-.732-1.768s.263-1.299.732-1.768C8.702 8.263 9.337 8 10 8h1V6h2v2h2.5v2H10c-.133 0-.26.053-.354.146-.093.094-.146.221-.146.354 0 .133.053.26.146.354.094.093.221.146.354.146h4c.663 0 1.299.263 1.768.732.469.47.732 1.105.732 1.768s-.263 1.299-.732 1.768c-.47.469-1.105.732-1.768.732h-1v2h-2v-2H8.5v-2z"/>
</svg>
