<svg xmlns="http://www.w3.org/2000/svg" width="24" height="24" fill="none" viewBox="0 0 24 24">
    <path fill="#25265E" d="M11 3c-1.857 0-3.637.737-4.95 2.05C4.737 6.363 4 8.143 4 10c0 .265.105.52.293.707.187.188.442.293.707.293.265 0 .52-.105.707-.293C5.895 10.52 6 10.265 6 10c0-1.326.527-2.598 1.464-3.536C8.402 5.527 9.674 5 11 5s2.598.527 3.536 1.464C15.473 7.402 16 8.674 16 10c-.003.905-.248 1.792-.71 2.57L11.73 20c-.175.304-.428.556-.731.732-.304.175-.648.268-.999.268-.53 0-1.04-.21-1.414-.586C8.21 20.04 8 19.53 8 19c0-.265-.105-.52-.293-.707C7.52 18.105 7.265 18 7 18c-.265 0-.52.105-.707.293C6.105 18.48 6 18.735 6 19c0 1.06.421 2.078 1.172 2.828C7.922 22.578 8.939 23 10 23c.715 0 1.417-.193 2.033-.557.615-.364 1.122-.887 1.467-1.513l3.56-7.43c.618-1.063.943-2.27.94-3.5 0-1.857-.738-3.637-2.05-4.95C14.637 3.737 12.857 3 11 3zM4 15c-.198 0-.391.059-.556.168-.164.11-.292.267-.368.45-.076.182-.095.383-.057.577.039.194.134.372.274.512s.318.235.512.274c.194.038.395.019.578-.057.182-.076.339-.204.448-.368.11-.165.169-.358.169-.556 0-.265-.105-.52-.293-.707C4.52 15.105 4.265 15 4 15zM17.59 1.2c-.105-.079-.225-.136-.352-.169-.127-.032-.26-.04-.39-.021s-.255.063-.367.13c-.114.066-.212.155-.291.26-.079.105-.136.225-.169.352-.032.127-.04.26-.02.39.018.13.062.254.128.367.067.113.156.212.261.291 1.12.837 2.029 1.924 2.655 3.174C19.672 7.224 20 8.602 20 10c0 .265.105.52.293.707.187.188.442.293.707.293.265 0 .52-.105.707-.293.188-.187.293-.442.293-.707-.006-1.708-.407-3.39-1.172-4.918-.765-1.526-1.873-2.855-3.238-3.882zM11 9c.265 0 .52.105.707.293.188.187.293.442.293.707 0 .265.105.52.293.707.187.188.442.293.707.293.265 0 .52-.105.707-.293.188-.187.293-.442.293-.707 0-.796-.316-1.559-.879-2.121C12.56 7.316 11.796 7 11 7s-1.559.316-2.121.879C8.316 8.44 8 9.204 8 10c-.001.598.176 1.183.51 1.68.138.196.295.377.47.54l.2.22c.11.164.168.357.168.555 0 .198-.058.39-.168.555-.15.218-.21.486-.162.747.047.26.195.492.412.643.167.117.366.18.57.18.161 0 .32-.04.463-.114.143-.075.265-.184.357-.316.342-.5.525-1.09.525-1.695s-.183-1.196-.525-1.695c-.105-.15-.222-.29-.35-.42l-.14-.14c-.059-.055-.112-.115-.16-.18-.111-.165-.17-.36-.17-.56 0-.265.105-.52.293-.707C10.48 9.105 10.735 9 11 9zm-4 6c.198 0 .391-.059.556-.168.164-.11.292-.267.368-.45.076-.182.095-.383.057-.577-.039-.194-.134-.372-.274-.512s-.318-.235-.512-.274c-.194-.038-.395-.019-.578.057-.182.076-.339.204-.448.368-.11.165-.169.358-.169.556 0 .265.105.52.293.707.187.188.442.293.707.293z"/>
</svg>
