<svg xmlns="http://www.w3.org/2000/svg" width="69.109" height="107.338" viewBox="0 0 69.109 107.338">
    <path fill="none" stroke="#3e9896" stroke-miterlimit="10" d="M998.329 1492.985v-.008c-.835-2.266-1.542-4.392-2.313-6.427a55.368 55.368 0 0 0-2.572-5.847 43.873 43.873 0 0 0-3.289-5.415 54.445 54.445 0 0 0-4.054-5l-.048-.052a3.312 3.312 0 0 1 4.619-4.731 61.369 61.369 0 0 1 5.269 5.1c1.091 1.189 2.117 2.446 3.093 3.745a149.729 149.729 0 0 0-3.261-21.152 86.848 86.848 0 0 0-8.308-22.058 89.886 89.886 0 0 0-14.2-18.973 212.8 212.8 0 0 0-18.077-16.373l-.011-.009a3.308 3.308 0 0 1 4.14-5.16 219.475 219.475 0 0 1 19.23 16.291 97.862 97.862 0 0 1 16.106 20.112 95.544 95.544 0 0 1 9.945 23.9 159.715 159.715 0 0 1 4.277 22.746 69.008 69.008 0 0 1 7.469-8.052 3.313 3.313 0 0 1 4.75 4.6l-.029.033a64.278 64.278 0 0 0-7.321 10.651c-1.061 1.9-2.052 3.859-3.032 5.872-.958 1.957-1.895 3.963-2.983 6.067a4.977 4.977 0 0 1-9.4.146z" transform="translate(-953.278 -1389.424)"/>
</svg>
