<svg xmlns="http://www.w3.org/2000/svg" width="44.117" height="116.507" viewBox="0 0 44.117 116.507">
    <path fill="none" stroke="#3e9896" stroke-miterlimit="10" d="M861.29 990.006V990c.119-2.412.158-4.652.286-6.824a55.643 55.643 0 0 1 .706-6.348 44.015 44.015 0 0 1 1.52-6.151 54.593 54.593 0 0 1 2.374-5.984l.03-.064a3.312 3.312 0 0 0-5.822-3.135 61.619 61.619 0 0 0-3.5 6.439c-.685 1.46-1.289 2.967-1.832 4.5a149.752 149.752 0 0 1-3.211-21.159 86.814 86.814 0 0 1 1.334-23.533 89.882 89.882 0 0 1 7.881-22.351 212.648 212.648 0 0 1 12.356-21.029l.008-.012a3.308 3.308 0 0 0-5.494-3.686 219.535 219.535 0 0 0-13.48 21.295 97.807 97.807 0 0 0-9.357 24.007 95.573 95.573 0 0 0-2.347 25.778 159.774 159.774 0 0 0 2.718 22.985 69.115 69.115 0 0 0-9.534-5.452 3.313 3.313 0 0 0-3.158 5.811l.038.023a64.331 64.331 0 0 1 10.171 7.975c1.581 1.5 3.111 3.07 4.649 4.7 1.5 1.582 2.992 3.215 4.659 4.9a4.978 4.978 0 0 0 9.01-2.669z" transform="translate(-830.51 -878.735)"/>
</svg>
