<svg xmlns="http://www.w3.org/2000/svg" width="24" height="24" fill="none" viewBox="0 0 24 24">
    <path fill="#21275F" d="M21.17 2.06c-.717-.123-1.443-.187-2.17-.19-2.482-.002-4.912.71-7 2.05-2.094-1.323-4.524-2.017-7-2-.728.003-1.454.067-2.17.19-.235.04-.448.164-.6.347-.152.183-.234.415-.23.653v12c-.003.147.028.293.088.427.06.133.15.252.262.348.111.095.243.165.385.204.141.039.29.046.435.021 1.433-.248 2.9-.207 4.318.121 1.417.328 2.753.936 3.932 1.79l.12.07h.11c.11.045.23.07.35.07.12 0 .239-.025.35-.07h.11l.12-.07c1.17-.873 2.503-1.5 3.92-1.848 1.417-.346 2.89-.405 4.33-.173.144.025.293.018.435-.021.141-.039.273-.109.384-.204.112-.096.201-.215.262-.348.06-.134.09-.28.089-.427V3c-.01-.228-.099-.445-.25-.616-.15-.171-.356-.285-.58-.324zM11 15.35c-1.85-.973-3.91-1.481-6-1.48H4v-10c.333-.02.667-.02 1 0 2.133-.002 4.22.624 6 1.8v9.68zm9-1.44h-1c-2.09-.001-4.15.507-6 1.48V5.67c1.78-1.176 3.866-1.802 6-1.8.333-.02.666-.02 1 0v10.04zm1.17 4.15c-.717-.123-1.443-.187-2.17-.19-2.482-.002-4.912.71-7 2.05-2.089-1.34-4.519-2.052-7-2.05-.728.003-1.454.067-2.17.19-.13.02-.255.067-.368.136-.112.07-.21.16-.287.266-.077.107-.132.229-.162.357-.03.128-.035.261-.013.391.05.26.202.489.421.637.22.148.489.203.749.153 1.433-.248 2.9-.207 4.318.121 1.417.328 2.753.937 3.932 1.79.169.12.372.184.58.184.207 0 .41-.064.58-.185 1.178-.852 2.515-1.46 3.932-1.789 1.416-.328 2.885-.369 4.318-.12.26.049.529-.006.748-.154.22-.148.37-.377.422-.637.021-.13.017-.263-.014-.391-.03-.128-.085-.25-.162-.357-.077-.106-.175-.197-.287-.266-.112-.069-.237-.115-.367-.136z"/>
</svg>
