<svg xmlns="http://www.w3.org/2000/svg" width="24" height="24" fill="none" viewBox="0 0 24 24">
    <path fill="#21275F" d="M19 3H5c-.796 0-1.559.316-2.121.879C2.316 4.44 2 5.204 2 6v8c0 .796.316 1.559.879 2.121C3.44 16.684 4.204 17 5 17h6v2H7c-.265 0-.52.105-.707.293C6.105 19.48 6 19.735 6 20c0 .265.105.52.293.707.187.188.442.293.707.293h10c.265 0 .52-.105.707-.293.188-.187.293-.442.293-.707 0-.265-.105-.52-.293-.707C17.52 19.105 17.265 19 17 19h-4v-2h6c.796 0 1.559-.316 2.121-.879.563-.562.879-1.325.879-2.121V6c0-.796-.316-1.559-.879-2.121C20.56 3.316 19.796 3 19 3zm1 11c0 .265-.105.52-.293.707-.187.188-.442.293-.707.293H5c-.265 0-.52-.105-.707-.293C4.105 14.52 4 14.265 4 14V6c0-.265.105-.52.293-.707C4.48 5.105 4.735 5 5 5h14c.265 0 .52.105.707.293.188.187.293.442.293.707v8z"/>
</svg>
