<svg xmlns="http://www.w3.org/2000/svg" width="24" height="24" fill="none" viewBox="0 0 24 24">
    <path fill="#25265E" d="M12 13c-.265 0-.52.105-.707.293-.188.187-.293.442-.293.707v3c0 .265.105.52.293.707.187.188.442.293.707.293.265 0 .52-.105.707-.293.188-.187.293-.442.293-.707v-3c0-.265-.105-.52-.293-.707C12.52 13.105 12.265 13 12 13zm5-4V7c0-1.326-.527-2.598-1.464-3.536C14.598 2.527 13.326 2 12 2s-2.598.527-3.536 1.464C7.527 4.402 7 5.674 7 7v2c-.796 0-1.559.316-2.121.879C4.316 10.44 4 11.204 4 12v7c0 .796.316 1.559.879 2.121C5.44 21.684 6.204 22 7 22h10c.796 0 1.559-.316 2.121-.879.563-.562.879-1.325.879-2.121v-7c0-.796-.316-1.559-.879-2.121C18.56 9.316 17.796 9 17 9zM9 7c0-.796.316-1.559.879-2.121C10.44 4.316 11.204 4 12 4s1.559.316 2.121.879C14.684 5.44 15 6.204 15 7v2H9V7zm9 12c0 .265-.105.52-.293.707-.187.188-.442.293-.707.293H7c-.265 0-.52-.105-.707-.293C6.105 19.52 6 19.265 6 19v-7c0-.265.105-.52.293-.707C6.48 11.105 6.735 11 7 11h10c.265 0 .52.105.707.293.188.187.293.442.293.707v7z"/>
</svg>
