<svg xmlns="http://www.w3.org/2000/svg" width="24" height="24" fill="none" viewBox="0 0 24 24">
    <path fill="#21275F" d="M10 8h6c.265 0 .52-.105.707-.293C16.895 7.52 17 7.265 17 7c0-.265-.105-.52-.293-.707C16.52 6.105 16.265 6 16 6h-6c-.265 0-.52.105-.707.293C9.105 6.48 9 6.735 9 7c0 .265.105.52.293.707.187.188.442.293.707.293zm-2 4h8c.265 0 .52-.105.707-.293.188-.187.293-.442.293-.707 0-.265-.105-.52-.293-.707C16.52 10.105 16.265 10 16 10H8c-.265 0-.52.105-.707.293C7.105 10.48 7 10.735 7 11c0 .265.105.52.293.707.187.188.442.293.707.293zm0 4h8c.265 0 .52-.105.707-.293.188-.187.293-.442.293-.707 0-.265-.105-.52-.293-.707C16.52 14.105 16.265 14 16 14H8c-.265 0-.52.105-.707.293C7.105 14.48 7 14.735 7 15c0 .265.105.52.293.707.187.188.442.293.707.293zM20 2H4c-.265 0-.52.105-.707.293C3.105 2.48 3 2.735 3 3v18c0 .186.052.368.15.526.097.158.237.285.403.368.166.084.352.119.537.102.185-.017.361-.085.51-.196l2.07-1.55 2.06 1.55c.173.13.384.2.6.2.216 0 .427-.07.6-.2L12 20.25l2.07 1.55c.173.13.384.2.6.2.216 0 .427-.07.6-.2l2.06-1.55 2.07 1.55c.15.111.327.179.512.194.186.016.372-.02.538-.104.165-.083.304-.21.4-.367.098-.157.15-.338.15-.523V3c0-.265-.105-.52-.293-.707C20.52 2.105 20.265 2 20 2zm-1 17l-1.07-.8c-.173-.13-.384-.2-.6-.2-.216 0-.427.07-.6.2l-2.06 1.55-2.07-1.55c-.173-.13-.384-.2-.6-.2-.216 0-.427.07-.6.2l-2.07 1.55-2.06-1.55c-.173-.13-.384-.2-.6-.2-.216 0-.427.07-.6.2L5 19V4h14v15z"/>
</svg>
