<svg xmlns="http://www.w3.org/2000/svg" width="30" height="29.948" viewBox="0 0 30 29.948">
    <path fill="#2d908e" d="M1310 168a14.992 14.992 0 0 0-1.036 29.948v-9.962h-3.516c-.156 0-.157 0-.157-.15v-3.95c0-.12.036-.15.152-.15h3.523v-.128c0-1.094-.007-2.189.009-3.283a5.978 5.978 0 0 1 .567-2.532 4.586 4.586 0 0 1 2.453-2.322 5.779 5.779 0 0 1 2.324-.441c.918.014 1.836.055 2.755.088.171.006.34.035.511.044.095.005.127.04.127.135v3.564c0 .112-.031.146-.144.145-.7 0-1.4-.013-2.091 0a4.937 4.937 0 0 0-.947.11 1.324 1.324 0 0 0-1.069 1.118 3.878 3.878 0 0 0-.077.729c-.01.891 0 1.784 0 2.676 0 .026 0 .053.006.094h4.008c.169 0 .171 0 .151.16-.091.7-.186 1.4-.276 2.1q-.112.879-.219 1.759c-.026.224-.021.225-.246.225h-3.424v9.623A14.994 14.994 0 0 0 1310 168z" transform="translate(-1295 -168)"/>
</svg>
