<svg xmlns="http://www.w3.org/2000/svg" width="30" height="30" viewBox="0 0 30 30">
    <path fill="#2d908e" d="M1270.426 168.919a15 15 0 1 0 15 15 15 15 0 0 0-15-15zm8.168 12.09c.007.16.01.32.01.481a10.569 10.569 0 0 1-16.271 8.9 7.624 7.624 0 0 0 .886.052 7.461 7.461 0 0 0 4.616-1.591 3.722 3.722 0 0 1-3.472-2.581 3.748 3.748 0 0 0 1.679-.064 3.72 3.72 0 0 1-2.982-3.644v-.047a3.714 3.714 0 0 0 1.683.465 3.721 3.721 0 0 1-1.15-4.962 10.554 10.554 0 0 0 7.66 3.883 3.723 3.723 0 0 1 3.621-4.563 3.713 3.713 0 0 1 2.713 1.173 7.461 7.461 0 0 0 2.36-.9 3.726 3.726 0 0 1-1.634 2.056 7.39 7.39 0 0 0 2.134-.585 7.54 7.54 0 0 1-1.853 1.927z" transform="translate(-1255.426 -168.919)"/>
</svg>
