<svg width="71" height="71" viewBox="0 0 71 71" fill="none" xmlns="http://www.w3.org/2000/svg">
<path d="M8.87467 56.9582H9.62467V56.2082V16.8623V16.8621C9.62454 16.4088 9.76391 15.9664 10.0239 15.5951C10.2838 15.2237 10.6518 14.9413 11.0778 14.7863L39.6876 4.38488L39.6878 4.38479C39.798 4.34469 39.9162 4.33175 40.0324 4.34707C40.1486 4.36238 40.2595 4.40549 40.3555 4.47276C40.4515 4.54002 40.5299 4.62944 40.584 4.73344C40.6381 4.83745 40.6664 4.95297 40.6663 5.07021V5.07043V19.7231V20.2637L41.1792 20.4346L59.864 26.6619L59.8642 26.6619C60.3041 26.8084 60.6867 27.0897 60.9578 27.4659C61.2289 27.842 61.3748 28.2939 61.3747 28.7576V28.7578V56.2082V56.9582H62.1247H67.2913V61.3748H3.70801V56.9582H8.87467ZM14.0413 56.2082V56.9582H14.7913H35.4997H36.2497V56.2082V11.4042V10.3334L35.2433 10.6994L14.535 18.2313L14.0413 18.4109V18.9361V56.2082ZM56.208 56.9582H56.958V56.2082V30.8908V30.3502L56.4452 30.1793L41.6536 25.2477L40.6663 24.9186V25.9592V56.2082V56.9582H41.4163H56.208Z" fill="#FFB84F" stroke="#212126" stroke-width="1.5"/>
<rect x="19" y="27" width="13" height="4" fill="#FFB84F"/>
<rect x="19" y="35" width="13" height="4" fill="#FFB84F"/>
<rect x="19" y="43" width="13" height="4" fill="#FFB84F"/>
<path d="M54 53.207L67 57.207H54V53.207Z" fill="#212126"/>
</svg>
