<svg width="59" height="60" viewBox="0 0 59 60" fill="none" xmlns="http://www.w3.org/2000/svg">
<path d="M37.1055 11.3296L42.2088 18.3805L51.6168 7.16064" stroke="#FFB84F" stroke-width="2" stroke-miterlimit="10"/>
<path d="M45.4003 25.0208H57.681V1.1355H30.7393V25.016H40.4226L33.6932 33.3745" stroke="#FFB84F" stroke-width="2" stroke-miterlimit="10"/>
<path d="M16.9834 44.1729V59.9002" stroke="#FFB84F" stroke-width="2" stroke-miterlimit="10"/>
<path d="M11.467 59.8998L9.9643 42.938L7.00011 43.835C7.00011 43.835 1.14258 45.2953 1.14258 50.1164V59.8998" stroke="#FFB84F" stroke-width="2" stroke-miterlimit="10"/>
<path d="M22.4941 59.8998L23.9979 42.938L26.961 43.835C26.961 43.835 32.8197 45.2953 32.8197 50.1164V59.8998" stroke="#FFB84F" stroke-width="2" stroke-miterlimit="10"/>
<path d="M16.9729 18.0955C8.92472 18.0955 8.47905 22.9529 9.04126 28.8558C9.60348 34.7587 13.3299 39.6103 16.9729 39.6103C20.6158 39.6103 24.3434 34.7701 24.9056 28.8558C25.4678 22.9415 25.0233 18.0955 16.9729 18.0955Z" stroke="#FFB84F" stroke-width="2" stroke-miterlimit="10"/>
<path d="M20.0003 23.5293C20.0003 23.5293 18.3265 26.7463 9.41211 27.0587" stroke="#FFB84F" stroke-width="2" stroke-miterlimit="10"/>
<path d="M19.0049 24.6001C20.775 25.8197 22.7432 26.7251 24.8224 27.2758" stroke="#FFB84F" stroke-width="2" stroke-miterlimit="10"/>
</svg>
