<svg width="54" height="54" viewBox="0 0 54 54" fill="none" xmlns="http://www.w3.org/2000/svg">
<path d="M23.088 30.8244C23.1602 31.8143 23.6047 32.7402 24.3321 33.416C25.0595 34.0918 26.0159 34.4675 27.0091 34.4675C28.0023 34.4675 28.9587 34.0918 29.6861 33.416C30.4135 32.7402 30.858 31.8143 30.9302 30.8244C30.9302 28.8123 28.8375 27.9306 27.0008 26.9978C25.164 26.0651 23.0713 25.1863 23.0713 23.1763C23.1435 22.1864 23.588 21.2605 24.3154 20.5847C25.0428 19.9089 25.9992 19.5332 26.9924 19.5332C27.9857 19.5332 28.9421 19.9089 29.6695 20.5847C30.3969 21.2605 30.8414 22.1864 30.9136 23.1763" stroke="#FFB84F" stroke-width="2" stroke-miterlimit="10"/>
<path d="M26.9922 19.5139V17.0713" stroke="#FFB84F" stroke-width="2" stroke-miterlimit="10"/>
<path d="M26.9922 36.9285V34.4858" stroke="#FFB84F" stroke-width="2" stroke-miterlimit="10"/>
<path d="M18.2582 14.3779C21.4031 12.2031 25.2471 11.2797 29.0376 11.7884C32.8281 12.2971 36.2921 14.2013 38.7513 17.1281C41.2105 20.0549 42.4878 23.7935 42.3332 27.612C42.1786 31.4305 40.6031 35.054 37.9152 37.7727C35.2274 40.4915 31.6208 42.1097 27.8016 42.3107C23.9823 42.5117 20.2256 41.2809 17.2668 38.8593C14.3081 36.4378 12.3604 32.9999 11.8052 29.2188C11.25 25.4376 12.1273 21.5855 14.2653 18.4168" stroke="#FFB84F" stroke-width="2" stroke-miterlimit="10"/>
<path d="M8.33803 14.5101L9.2423 15.7861C7.95929 17.8026 7.03284 20.0245 6.50337 22.3548L1.04102 23.2989V30.7214L6.50128 31.6178C7.02692 33.9586 7.95316 36.191 9.23919 38.2167L6.02466 42.7455L11.2622 47.9781L15.7994 44.7628C17.8254 46.0423 20.057 46.9631 22.396 47.4851L23.2952 52.9601H30.7045L31.6047 47.4851C33.9434 46.9631 36.1747 46.0423 38.2003 44.7628L42.7396 47.9781L47.9751 42.7455L44.7605 38.218C46.0407 36.2016 46.9643 33.9802 47.4911 31.6511L52.9597 30.7214V23.2989L47.5026 22.387C46.9766 20.0439 46.05 17.809 44.7636 15.7807L47.9761 11.2542L42.7396 6.01959L38.2055 9.23184C36.1777 7.95178 33.9445 7.03005 31.6037 6.50728L30.7024 1.0376H23.2952" stroke="#FFB84F" stroke-width="2" stroke-miterlimit="10"/>
<path d="M22.6204 5.14111L22.3957 6.5105C20.0573 7.03547 17.8269 7.95883 15.8021 9.24014L11.2618 6.01977L6.02637 11.2523" stroke="#FFB84F" stroke-width="2" stroke-miterlimit="10"/>
</svg>
