<svg width="64" height="47" viewBox="0 0 64 47" fill="none" xmlns="http://www.w3.org/2000/svg">
<path d="M35.2252 28.4655C35.3188 29.7528 35.9004 30.9572 36.8529 31.8363C37.8054 32.7155 39.0581 33.2045 40.3592 33.2045C41.6603 33.2045 42.9131 32.7155 43.8656 31.8363C44.8181 30.9572 45.3997 29.7528 45.4933 28.4655C45.4933 25.8483 42.752 24.7064 40.3516 23.4937C37.9512 22.2809 35.21 21.139 35.21 18.5246C35.3035 17.2373 35.8851 16.0329 36.8376 15.1538C37.7902 14.2746 39.0429 13.7856 40.344 13.7856C41.6451 13.7856 42.8979 14.2746 43.8504 15.1538C44.8029 16.0329 45.3845 17.2373 45.4781 18.5246" stroke="#FFB84F" stroke-width="3" stroke-miterlimit="10"/>
<path d="M40.3369 13.7634V10.4038" stroke="#FFB84F" stroke-width="3" stroke-miterlimit="10"/>
<path d="M40.3369 36.5862V33.2266" stroke="#FFB84F" stroke-width="3" stroke-miterlimit="10"/>
<path d="M25.7669 29.1118H9.96582" stroke="#FFB84F" stroke-width="3" stroke-miterlimit="10"/>
<path d="M17.2814 34.9922H11.7627" stroke="#FFB84F" stroke-width="3" stroke-miterlimit="10"/>
<path d="M16.5291 11.8091H6.27344" stroke="#FFB84F" stroke-width="3" stroke-miterlimit="10"/>
<path d="M24.629 20.3052H14.4609" stroke="#FFB84F" stroke-width="3" stroke-miterlimit="10"/>
<path d="M7.6474 34.9922H3.75879" stroke="#FFB84F" stroke-width="3" stroke-miterlimit="10"/>
<path d="M10.3447 20.3052H6.45605" stroke="#FFB84F" stroke-width="3" stroke-miterlimit="10"/>
<path d="M2.34136 20.3052H0" stroke="#FFB84F" stroke-width="3" stroke-miterlimit="10"/>
<path d="M19.7472 16.7941C21.3655 11.9001 24.7016 7.74527 29.1483 5.08611C33.595 2.42694 38.8564 1.44019 43.9748 2.3056C49.0932 3.171 53.7282 5.83106 57.0357 9.8013C60.3433 13.7715 62.1036 18.788 61.9961 23.9374C61.8886 29.0869 59.9206 34.0267 56.4502 37.8577C52.9798 41.6888 48.2379 44.1561 43.0878 44.8106C37.9377 45.4651 32.7218 44.2633 28.3899 41.4239C24.0579 38.5844 20.898 34.2963 19.4854 29.34" stroke="#FFB84F" stroke-width="3" stroke-miterlimit="10"/>
<path d="M18.7874 25.7054C18.6049 23.9604 18.637 22.1998 18.8827 20.4624" stroke="#FFB84F" stroke-width="3" stroke-miterlimit="10"/>
</svg>
