<svg xmlns="http://www.w3.org/2000/svg" width="51.891" height="51.93" viewBox="0 0 51.891 51.93">
    <defs>
        <style>
            .cls-1{fill:none;stroke:#3ea9a7;stroke-miterlimit:10;stroke-width:2px}
        </style>
    </defs>
    <g id="Group_30" transform="translate(-856.055 -3461.211)">
        <g id="Group_26">
            <g id="Group_25">
                <path id="Path_61" d="M878.241 3490.854a3.778 3.778 0 0 0 7.536 0c0-1.935-2.011-2.783-3.776-3.68s-3.776-1.742-3.776-3.675a3.778 3.778 0 0 1 7.536 0" class="cls-1"/>
                <path id="Line_2" d="M0 2.349L0 0" class="cls-1" transform="translate(881.993 3477.628)"/>
                <path id="Line_3" d="M0 2.349L0 0" class="cls-1" transform="translate(881.993 3494.375)"/>
            </g>
        </g>
        <g id="Group_29">
            <g id="Group_28">
                <g id="Group_27">
                    <path id="Path_62" d="M873.6 3475.038a14.752 14.752 0 1 1-3.837 3.884" class="cls-1"/>
                    <path id="Path_63" d="M864.067 3475.165l.869 1.227a20.047 20.047 0 0 0-2.632 6.317l-5.249.908v7.138l5.247.862a20.036 20.036 0 0 0 2.631 6.346l-3.089 4.355 5.033 5.032 4.36-3.092a20.042 20.042 0 0 0 6.339 2.618l.864 5.265h7.12l.865-5.265a20.036 20.036 0 0 0 6.338-2.618l4.362 3.092 5.031-5.032-3.089-4.354a20.033 20.033 0 0 0 2.624-6.315l5.255-.894v-7.138l-5.244-.877a20.079 20.079 0 0 0-2.632-6.353l3.087-4.353-5.032-5.034-4.357 3.089a20.078 20.078 0 0 0-6.344-2.62l-.866-5.26h-7.118" class="cls-1"/>
                    <path id="Path_64" d="M877.792 3466.155l-.216 1.317a20.062 20.062 0 0 0-6.336 2.625l-4.363-3.097-5.031 5.032" class="cls-1"/>
                </g>
            </g>
        </g>
    </g>
</svg>
