<svg xmlns="http://www.w3.org/2000/svg" width="98.742" height="15.111" viewBox="0 0 98.742 15.111">
    <defs>
        <style>
            .cls-1{fill:#3ea9a7}
        </style>
    </defs>
    <g id="Group_67" transform="translate(-1001.51 -4038.494)">
        <path id="Path_81" d="M1009.454 4038.494l2.455 4.974 5.489.8-3.972 3.872.938 5.467-4.91-2.581-4.91 2.581.938-5.467-3.972-3.872 5.489-.8z" class="cls-1"/>
        <path id="Path_82" d="M1030.167 4038.494l2.455 4.974 5.489.8-3.972 3.872.938 5.467-4.91-2.581-4.91 2.581.938-5.467-3.972-3.872 5.489-.8z" class="cls-1"/>
        <path id="Path_83" d="M1050.881 4038.494l2.455 4.974 5.489.8-3.972 3.872.938 5.467-4.91-2.581-4.91 2.581.938-5.467-3.972-3.872 5.489-.8z" class="cls-1"/>
        <path id="Path_84" d="M1071.594 4038.494l2.455 4.974 5.49.8-3.972 3.872.938 5.467-4.91-2.581-4.91 2.581.938-5.467-3.972-3.872 5.49-.8z" class="cls-1"/>
        <path id="Path_85" fill="#bbbdbe" d="M1092.307 4038.494l2.455 4.974 5.489.8-3.972 3.872.938 5.467-4.91-2.581-4.91 2.581.938-5.467-3.972-3.872 5.489-.8z"/>
    </g>
</svg>
