<svg xmlns="http://www.w3.org/2000/svg" width="98.742" height="15.111" viewBox="0 0 98.742 15.111">
    <defs>
        <style>
            .cls-1{fill:#3ea9a7}
        </style>
    </defs>
    <g id="Group_66" transform="translate(-623.237 -4038.494)">
        <path id="Path_76" d="M631.181 4038.494l2.455 4.974 5.489.8-3.972 3.872.938 5.467-4.91-2.581-4.91 2.581.938-5.467-3.972-3.872 5.489-.8z" class="cls-1"/>
        <path id="Path_77" d="M651.894 4038.494l2.455 4.974 5.489.8-3.972 3.872.938 5.467-4.91-2.581-4.91 2.581.938-5.467-3.972-3.872 5.489-.8z" class="cls-1"/>
        <path id="Path_78" d="M672.607 4038.494l2.455 4.974 5.489.8-3.972 3.872.938 5.467-4.91-2.581-4.91 2.581.938-5.467-3.972-3.872 5.489-.8z" class="cls-1"/>
        <path id="Path_79" d="M693.321 4038.494l2.455 4.974 5.489.8-3.972 3.872.938 5.467-4.91-2.581-4.91 2.581.938-5.467-3.972-3.872 5.489-.8z" class="cls-1"/>
        <path id="Path_80" d="M714.034 4038.494l2.455 4.974 5.489.8-3.972 3.872.938 5.467-4.91-2.581-4.91 2.581.938-5.467-3.972-3.872 5.489-.8z" class="cls-1"/>
    </g>
</svg>
