<svg xmlns="http://www.w3.org/2000/svg" width="177.551" height="19.231" viewBox="0 0 177.551 19.231">
    <defs>
        <style>
            .cls-1{fill:#194f97}.cls-2{fill:#172028}
        </style>
    </defs>
    <g id="Group_523" transform="translate(-719.339 -76.288)">
        <g id="Group_522">
            <path id="Path_18136" d="M735.329 90.306h-10.561l-3.268 5.051h-2.16l12.423-18.907h1.972l4.865 18.907h-2zm-.378-1.621l-2.566-10.21-6.591 10.21z" class="cls-1"/>
            <path id="Path_18137" d="M752.966 89.036l3.565 6.321h-2.16l-3.4-6.024c-.3.027-.648.027-.972.027h-5.379l-1.189 6h-2l3.781-18.907h6.806c4.295 0 6.753 1.971 6.753 5.348a6.929 6.929 0 0 1-5.805 7.235zm3.808-7.049c0-2.485-1.755-3.809-4.889-3.809h-5.023l-1.918 9.454h5.105c4.267 0 6.725-1.918 6.725-5.645z" class="cls-1"/>
            <path id="Path_18138" d="M762.689 87.551c0 3.7 2.4 6.185 7.076 6.185a8.091 8.091 0 0 0 4.835-1.485l1.27-6.348h1.918l-1.459 7.266a10.629 10.629 0 0 1-6.779 2.35c-5.564 0-8.833-3.16-8.833-7.86 0-6.212 4.43-11.371 11.534-11.371 3.187 0 5.618 1 7.022 2.755l-1.4 1.215c-1.3-1.513-3.161-2.188-5.7-2.188a9.164 9.164 0 0 0-9.484 9.481z" class="cls-1"/>
            <path id="Path_18139" d="M781.3 87.659a11.015 11.015 0 0 1 11.4-11.371c5.591 0 8.778 3.187 8.778 7.859a11.037 11.037 0 0 1-11.428 11.372c-5.591 0-8.75-3.187-8.75-7.86zm18.178-3.43c0-3.674-2.4-6.159-6.968-6.159-5.618 0-9.238 4.349-9.238 9.481 0 3.7 2.4 6.185 6.969 6.185 5.616 0 9.235-4.349 9.235-9.507z" class="cls-1"/>
            <path id="Path_18140" d="M807.85 80.687h-5.808v-4.242h16.939v4.242H813.2v14.67h-5.35z" class="cls-2"/>
            <path id="Path_18141" d="M828.543 90.332h-2.918v5.025h-5.349V76.445h8.646c5.16 0 8.4 2.674 8.4 7a6.276 6.276 0 0 1-3.7 5.971l4.079 5.944h-5.727zm.054-9.672h-2.972v5.54h2.975c2.216 0 3.323-1.027 3.323-2.756-.003-1.758-1.11-2.784-3.323-2.784z" class="cls-2"/>
            <path id="Path_18142" d="M852.235 91.682h-8l-1.486 3.675h-5.457l8.348-18.912h5.268l8.376 18.912h-5.566zm-1.567-3.944l-2.432-6.052-2.436 6.052z" class="cls-2"/>
            <path id="Path_18143" d="M860.095 76.445h8.942c6.268 0 10.564 3.647 10.564 9.456s-4.3 9.456-10.564 9.456h-8.942zm8.726 14.643c3.215 0 5.376-1.918 5.376-5.187s-2.161-5.188-5.376-5.188h-3.377v10.375z" class="cls-2"/>
            <path id="Path_18144" d="M896.89 91.223v4.134h-15.184V76.445h14.833v4.133H887v3.189h8.4v4H887v3.458z" class="cls-2"/>
        </g>
    </g>
</svg>
