<svg xmlns="http://www.w3.org/2000/svg" width="147.696" height="15.997" viewBox="0 0 147.696 15.997">
    <defs>
        <style>
            .cls-1{fill:#fff}
        </style>
    </defs>
    <g id="Group_71" transform="translate(-1325.644 -4409.255)">
        <g id="Group_70">
            <path id="Path_91" d="M1338.945 4420.916h-8.785l-2.719 4.2h-1.8l10.336-15.728h1.64l4.044 15.728H1340zm-.314-1.348l-2.135-8.493-5.482 8.493z" class="cls-1"/>
            <path id="Path_92" d="M1353.617 4419.86l2.966 5.258h-1.8l-2.831-5.011c-.247.023-.539.023-.809.023h-4.471l-.989 4.988h-1.662l3.146-15.728h5.661c3.573 0 5.618 1.64 5.618 4.449a5.764 5.764 0 0 1-4.829 6.021zm3.168-5.864c0-2.067-1.461-3.168-4.067-3.168h-4.179l-1.595 7.864h4.246c3.55 0 5.595-1.592 5.595-4.692z" class="cls-1"/>
            <path id="Path_93" d="M1361.7 4418.624c0 3.078 2 5.146 5.887 5.146a6.732 6.732 0 0 0 4.022-1.236l1.056-5.28h1.595l-1.213 6.044a8.843 8.843 0 0 1-5.64 1.954c-4.628 0-7.347-2.628-7.347-6.538a9.191 9.191 0 0 1 9.594-9.459c2.651 0 4.673.831 5.842 2.292l-1.169 1.011a5.823 5.823 0 0 0-4.74-1.82 7.623 7.623 0 0 0-7.887 7.886z" class="cls-1"/>
            <path id="Path_94" d="M1377.185 4418.714a9.163 9.163 0 0 1 9.482-9.459c4.651 0 7.3 2.651 7.3 6.538a9.181 9.181 0 0 1-9.5 9.459c-4.653 0-7.282-2.652-7.282-6.538zm15.122-2.853c0-3.056-2-5.123-5.8-5.123a7.573 7.573 0 0 0-7.684 7.886c0 3.078 2 5.146 5.8 5.146a7.58 7.58 0 0 0 7.684-7.909z" class="cls-1"/>
            <path id="Path_95" d="M1399.273 4412.914h-4.832v-3.528h14.091v3.528h-4.809v12.2h-4.45z" class="cls-1"/>
            <path id="Path_96" d="M1416.486 4420.937h-2.427v4.181h-4.45v-15.732h7.192c4.292 0 6.989 2.225 6.989 5.82a5.219 5.219 0 0 1-3.079 4.967l3.394 4.945h-4.764zm.045-8.045h-2.472v4.607h2.472c1.843 0 2.764-.854 2.764-2.293.005-1.46-.921-2.314-2.764-2.314z" class="cls-1"/>
            <path id="Path_97" d="M1436.194 4422.061h-6.652l-1.236 3.057h-4.54l6.945-15.732h4.382l6.967 15.732h-4.63zm-1.3-3.281l-2.023-5.034-2.022 5.034z" class="cls-1"/>
            <path id="Path_98" d="M1442.733 4409.386h7.438c5.214 0 8.788 3.034 8.788 7.866s-3.574 7.866-8.788 7.866h-7.438zm7.258 12.181c2.675 0 4.473-1.6 4.473-4.315s-1.8-4.315-4.473-4.315h-2.809v8.63z" class="cls-1"/>
            <path id="Path_99" d="M1473.34 4421.679v3.439h-12.63v-15.732h12.338v3.438h-7.933v2.652h6.989v3.326h-6.989v2.877z" class="cls-1"/>
        </g>
    </g>
</svg>
