<svg xmlns="http://www.w3.org/2000/svg" width="237.21" height="25.693" viewBox="0 0 237.21 25.693">
    <defs>
        <style>
            .cls-1{fill:#fff}
        </style>
    </defs>
    <g id="Group_5" transform="translate(-426.462 -93.244)">
        <g id="Group_4">
            <path id="Path_4" d="M447.825 111.973h-14.11l-4.366 6.748h-2.887l16.6-25.26h2.638l6.5 25.26h-2.671zm-.505-2.166l-3.428-13.64-8.8 13.64z" class="cls-1"/>
            <path id="Path_5" d="M471.388 110.277l4.764 8.444h-2.887l-4.547-8.047c-.4.036-.866.036-1.3.036h-7.181l-1.588 8.011h-2.67l5.052-25.26h9.093c5.738 0 9.022 2.634 9.022 7.145.001 5.194-2.886 8.552-7.758 9.671zm5.089-9.419c0-3.32-2.346-5.088-6.532-5.088h-6.712l-2.562 12.63h6.82c5.702 0 8.986-2.562 8.986-7.542z" class="cls-1"/>
            <path id="Path_6" d="M484.379 108.292c0 4.944 3.211 8.264 9.454 8.264a10.812 10.812 0 0 0 6.46-1.985l1.7-8.48h2.562L502.6 115.8a14.2 14.2 0 0 1-9.057 3.139c-7.434 0-11.8-4.222-11.8-10.5 0-8.3 5.918-15.192 15.408-15.192 4.258 0 7.506 1.335 9.382 3.681l-1.876 1.624c-1.732-2.021-4.222-2.923-7.614-2.923-7.721-.003-12.664 5.698-12.664 12.663z" class="cls-1"/>
            <path id="Path_7" d="M509.241 108.436c0-8.3 5.918-15.192 15.228-15.192 7.47 0 11.728 4.258 11.728 10.5 0 8.3-5.953 15.192-15.264 15.192-7.47.001-11.692-4.257-11.692-10.5zm24.286-4.582c0-4.908-3.211-8.228-9.31-8.228-7.506 0-12.342 5.81-12.342 12.666 0 4.944 3.212 8.264 9.311 8.264 7.506 0 12.341-5.81 12.341-12.702z" class="cls-1"/>
            <path id="Path_8" d="M544.715 99.121h-7.76v-5.667h22.631v5.667h-7.724v19.6h-7.147z" class="cls-1"/>
            <path id="Path_9" d="M572.361 112.007h-3.9v6.714h-7.146V93.454h11.55c6.894 0 11.226 3.574 11.226 9.349a8.384 8.384 0 0 1-4.945 7.977l5.45 7.941h-7.652zm.072-12.922h-3.971v7.4h3.971c2.96 0 4.439-1.372 4.439-3.682 0-2.346-1.479-3.718-4.439-3.718z" class="cls-1"/>
            <path id="Path_10" d="M604.013 113.812h-10.684l-1.985 4.909h-7.291l11.153-25.267h7.039l11.189 25.267H606zm-2.093-5.27l-3.249-8.085-3.248 8.085z" class="cls-1"/>
            <path id="Path_11" d="M614.514 93.454h11.947c8.374 0 14.113 4.873 14.113 12.633s-5.739 12.634-14.113 12.634h-11.947zm11.658 19.564c4.3 0 7.183-2.563 7.183-6.931s-2.887-6.93-7.183-6.93h-4.511v13.861z" class="cls-1"/>
            <path id="Path_12" d="M663.672 113.2v5.523h-20.285V93.454H663.2v5.523h-12.738v4.259h11.225v5.342h-11.225v4.62z" class="cls-1"/>
        </g>
    </g>
</svg>
