<svg xmlns="http://www.w3.org/2000/svg" width="132.011" height="44.22" viewBox="0 0 132.011 44.22">
    <defs>
        <style>
            .cls-1{fill:#fff}
        </style>
    </defs>
    <g id="Group_107" transform="translate(-427.424 -2091.736)">
        <path id="Path_4516" d="M551.293 2091.736H435.487c-6.912 0-8.063 2.393-8.063 8.085v28.1c0 5.687 2.368 8.034 8.055 8.034h115.814c5.692 0 8.142-2.35 8.142-8.041v-28.094c0-5.692-2.451-8.085-8.142-8.085zm0 1.04c2.589 0 4.38.526 5.473 1.608s1.629 2.862 1.629 5.437v28.094c0 2.569-.532 4.339-1.625 5.412s-2.881 1.589-5.477 1.589H435.479c-5.113 0-7.014-1.9-7.014-6.994v-28.1c0-2.946.342-4.537 1.18-5.49.945-1.075 2.747-1.555 5.842-1.555h115.806" class="cls-1"/>
        <path id="Path_4517" d="M478.273 2122.387l1.853-9.068h2.074l-2.78 12.046h-2l-2.292-8.795-2.341 8.795h-2.01L468 2113.319h2.077l1.87 9.051 2.3-9.051H476l2.275 9.068z" class="cls-1"/>
        <path id="Path_4518" d="M486.985 2117.861a1.692 1.692 0 0 0-1.336.579 3.006 3.006 0 0 0-.65 1.614h3.831v-.149a2.441 2.441 0 0 0-.538-1.527 1.678 1.678 0 0 0-1.307-.517zm.24 7.67a4.16 4.16 0 0 1-3.1-1.2 4.365 4.365 0 0 1-1.188-3.206v-.248a5.385 5.385 0 0 1 .517-2.4 3.943 3.943 0 0 1 1.452-1.642 3.848 3.848 0 0 1 2.085-.587 3.517 3.517 0 0 1 2.826 1.166 4.936 4.936 0 0 1 1 3.3v.811h-5.85a2.69 2.69 0 0 0 .741 1.754 2.224 2.224 0 0 0 1.634.646 2.723 2.723 0 0 0 2.25-1.117l1.084 1.034a3.623 3.623 0 0 1-1.435 1.245 4.5 4.5 0 0 1-2.015.443z" class="cls-1"/>
        <path id="Path_4519" d="M498.22 2120.806a3.8 3.8 0 0 0-.513-2.184 1.708 1.708 0 0 0-1.489-.728 1.866 1.866 0 0 0-1.836 1.142v3.69a1.884 1.884 0 0 0 1.853 1.166 1.7 1.7 0 0 0 1.456-.7 3.681 3.681 0 0 0 .529-2.126v-.257zm2.011.174a5.376 5.376 0 0 1-.931 3.318 3.031 3.031 0 0 1-2.561 1.233 2.918 2.918 0 0 1-2.448-1.134l-.1.968h-1.82v-12.708h2.011v4.617a2.909 2.909 0 0 1 2.341-1.026 3.065 3.065 0 0 1 2.573 1.216 5.467 5.467 0 0 1 .935 3.4v.116z" class="cls-1"/>
        <path id="Path_4520" d="M514.536 2115.007h-3.756v10.358h-2.08v-10.358h-3.72v-1.688h9.556v1.688z" class="cls-1"/>
        <path id="Path_4521" d="M520.071 2118.25a5 5 0 0 0-.819-.066 1.844 1.844 0 0 0-1.862 1.059v6.122h-2.01v-8.952h1.92l.05 1a2.265 2.265 0 0 1 2.018-1.166 1.868 1.868 0 0 1 .712.116l-.008 1.886z" class="cls-1"/>
        <path id="Path_4522" d="M524.232 2123.917a2.285 2.285 0 0 0 1.121-.289 1.935 1.935 0 0 0 .79-.778v-1.688h-1.084a2.965 2.965 0 0 0-1.679.389 1.26 1.26 0 0 0-.563 1.1 1.176 1.176 0 0 0 .385.923 1.49 1.49 0 0 0 1.03.343zm2.209 1.448a3.135 3.135 0 0 1-.232-.836 3.126 3.126 0 0 1-2.349 1 3.159 3.159 0 0 1-2.2-.77 2.462 2.462 0 0 1-.852-1.9 2.54 2.54 0 0 1 1.063-2.2 5.145 5.145 0 0 1 3.041-.766h1.232v-.587a1.567 1.567 0 0 0-.389-1.113 1.542 1.542 0 0 0-1.183-.418 1.769 1.769 0 0 0-1.125.344 1.063 1.063 0 0 0-.438.872H521a2.235 2.235 0 0 1 .488-1.377 3.26 3.26 0 0 1 1.328-1 4.659 4.659 0 0 1 1.874-.364 3.754 3.754 0 0 1 2.507.79 2.819 2.819 0 0 1 .96 2.221v4.038a4.574 4.574 0 0 0 .339 1.927v.141z" class="cls-1"/>
        <path id="Path_4523" d="M531.893 2121a3.718 3.718 0 0 0 .526 2.13 1.7 1.7 0 0 0 1.493.765 1.9 1.9 0 0 0 1.8-1.1v-3.822a1.869 1.869 0 0 0-1.787-1.076 1.717 1.717 0 0 0-1.505.774 4.151 4.151 0 0 0-.53 2.329zm-2.01-.174a5.322 5.322 0 0 1 .96-3.322 3.075 3.075 0 0 1 2.573-1.253 2.92 2.92 0 0 1 2.3.993v-4.584h2.011v12.708h-1.82l-.1-.927a2.966 2.966 0 0 1-2.408 1.093 3.058 3.058 0 0 1-2.544-1.266 5.517 5.517 0 0 1-.972-3.442z" class="cls-1"/>
        <path id="Path_4524" d="M543.526 2117.861a1.7 1.7 0 0 0-1.337.579 3.005 3.005 0 0 0-.649 1.614h3.831v-.149a2.453 2.453 0 0 0-.538-1.527 1.68 1.68 0 0 0-1.307-.517zm.24 7.67a4.162 4.162 0 0 1-3.1-1.2 4.369 4.369 0 0 1-1.187-3.206v-.248a5.371 5.371 0 0 1 .517-2.4 3.942 3.942 0 0 1 1.452-1.642 3.844 3.844 0 0 1 2.085-.587 3.513 3.513 0 0 1 2.825 1.166 4.931 4.931 0 0 1 1 3.3v.811h-5.849a2.689 2.689 0 0 0 .74 1.754 2.225 2.225 0 0 0 1.634.646 2.724 2.724 0 0 0 2.251-1.117l1.084 1.034a3.619 3.619 0 0 1-1.436 1.245 4.491 4.491 0 0 1-2.014.443z" class="cls-1"/>
        <path id="Path_4525" d="M553.6 2118.25a5 5 0 0 0-.819-.066 1.844 1.844 0 0 0-1.862 1.059v6.122h-2.01v-8.952h1.919l.05 1a2.265 2.265 0 0 1 2.018-1.166 1.868 1.868 0 0 1 .712.116l-.008 1.886z" class="cls-1"/>
        <path id="Path_4526" d="M473.285 2101.883h-2.156v5.946h-1.192v-5.946H467.8v-.969h5.485v.969z" class="cls-1"/>
        <path id="Path_4527" d="M476.462 2103.744a2.9 2.9 0 0 0-.47-.038 1.057 1.057 0 0 0-1.068.608v3.515h-1.155v-5.139h1.1l.029.575a1.3 1.3 0 0 1 1.159-.67 1.064 1.064 0 0 1 .408.067l-.005 1.082z" class="cls-1"/>
        <path id="Path_4528" d="M478.851 2107a1.315 1.315 0 0 0 .644-.167 1.1 1.1 0 0 0 .453-.446v-.969h-.622a1.7 1.7 0 0 0-.964.223.725.725 0 0 0-.323.632.673.673 0 0 0 .221.529.852.852 0 0 0 .591.2zm1.268.831a1.768 1.768 0 0 1-.133-.48 1.94 1.94 0 0 1-2.612.133 1.413 1.413 0 0 1-.489-1.092 1.459 1.459 0 0 1 .61-1.261 2.959 2.959 0 0 1 1.746-.44h.707v-.337a.9.9 0 0 0-.223-.639.888.888 0 0 0-.679-.239 1.014 1.014 0 0 0-.646.2.609.609 0 0 0-.252.5h-1.154a1.284 1.284 0 0 1 .28-.791 1.868 1.868 0 0 1 .763-.577 2.679 2.679 0 0 1 1.075-.209 2.153 2.153 0 0 1 1.439.454 1.614 1.614 0 0 1 .551 1.275v2.317a2.625 2.625 0 0 0 .2 1.107v.081z" class="cls-1"/>
        <path id="Path_4529" d="M483.249 2105.321a2.139 2.139 0 0 0 .3 1.223.979.979 0 0 0 .858.439 1.089 1.089 0 0 0 1.035-.631v-2.194a1.073 1.073 0 0 0-1.026-.618.985.985 0 0 0-.864.444 2.381 2.381 0 0 0-.3 1.337zm-1.154-.1a3.048 3.048 0 0 1 .551-1.906 1.764 1.764 0 0 1 1.477-.72 1.678 1.678 0 0 1 1.32.57v-2.631h1.157v7.3h-1.045l-.057-.532a1.7 1.7 0 0 1-1.382.627 1.757 1.757 0 0 1-1.46-.727 3.167 3.167 0 0 1-.558-1.976z" class="cls-1"/>
        <path id="Path_4530" d="M489.926 2103.521a.973.973 0 0 0-.767.333 1.719 1.719 0 0 0-.373.926h2.2v-.086a1.4 1.4 0 0 0-.308-.876.966.966 0 0 0-.751-.3zm.138 4.4a2.392 2.392 0 0 1-1.779-.691 2.508 2.508 0 0 1-.681-1.841v-.142a3.083 3.083 0 0 1 .3-1.375 2.251 2.251 0 0 1 .833-.943 2.213 2.213 0 0 1 1.2-.337 2.017 2.017 0 0 1 1.622.67 2.834 2.834 0 0 1 .572 1.9v.465h-3.358a1.548 1.548 0 0 0 .425 1.007 1.278 1.278 0 0 0 .938.37 1.56 1.56 0 0 0 1.292-.641l.622.594a2.075 2.075 0 0 1-.824.715 2.58 2.58 0 0 1-1.156.254z" class="cls-1"/>
        <path id="Path_4531" d="M496.38 2105.312a2.077 2.077 0 0 0 .328 1.242 1.066 1.066 0 0 0 .912.448 1.053 1.053 0 0 0 .909-.456 2.283 2.283 0 0 0 .326-1.334 2.046 2.046 0 0 0-.335-1.235 1.07 1.07 0 0 0-.91-.456 1.059 1.059 0 0 0-.9.449 2.24 2.24 0 0 0-.333 1.342zm-1.154-.1a3.023 3.023 0 0 1 .3-1.361 2.186 2.186 0 0 1 .84-.931 2.379 2.379 0 0 1 1.244-.325 2.244 2.244 0 0 1 1.689.67 2.634 2.634 0 0 1 .7 1.776l.005.271a3.053 3.053 0 0 1-.292 1.358 2.154 2.154 0 0 1-.836.926 2.379 2.379 0 0 1-1.256.328 2.231 2.231 0 0 1-1.741-.725 2.773 2.773 0 0 1-.653-1.93v-.057z" class="cls-1"/>
        <path id="Path_4532" d="M502.051 2102.69l.033.594a1.849 1.849 0 0 1 1.5-.689q1.605 0 1.634 1.838v3.4h-1.158v-3.333a1.059 1.059 0 0 0-.212-.725.89.89 0 0 0-.691-.235 1.113 1.113 0 0 0-1.04.632v3.657h-1.154v-5.139z" class="cls-1"/>
        <path id="Path_4533" d="M459.679 2118.624h-22.5v-15.183h22.5v15.183zm-.694-17.443h-21.159a2.812 2.812 0 0 0-2.8 2.8v14.047a2.812 2.812 0 0 0 2.8 2.8h7.506a2.481 2.481 0 0 1-2.149 2.075c-1 .183-.922 1.989 0 1.989h10.446c.923 0 1-1.806 0-1.989a2.483 2.483 0 0 1-2.149-2.075h7.5a2.813 2.813 0 0 0 2.8-2.8v-14.047a2.813 2.813 0 0 0-2.8-2.8z" class="cls-1"/>
    </g>
</svg>
