<svg width="431" height="493" viewBox="0 0 431 493" fill="none" xmlns="http://www.w3.org/2000/svg">
<g opacity="0.05" clip-path="url(#clip0)">
<path d="M353.276 493H34.8224C15.618 493 0 477.44 0 458.318V34.7019C0 15.5797 15.618 0.0200195 34.8224 0.0200195H247.17C251.431 0.0200195 254.883 3.46703 254.883 7.72283V113.309C254.883 123.939 263.578 132.585 274.28 132.585H380.386C384.647 132.585 388.099 136.032 388.099 140.288V279.035C388.099 283.291 384.647 286.738 380.386 286.738H134.18C123.479 286.738 114.783 295.384 114.783 306.014V399.161C114.783 409.79 123.479 418.437 134.18 418.437H380.367C384.628 418.437 388.079 421.884 388.079 426.14V458.357C388.079 477.44 372.461 493 353.276 493ZM34.8224 15.4256C24.1212 15.4256 15.4252 24.0721 15.4252 34.7019V458.337C15.4252 468.948 24.1212 477.594 34.8224 477.594H353.276C363.958 477.594 372.673 468.948 372.673 458.318V433.804H134.18C114.976 433.804 99.3577 418.244 99.3577 399.122V306.014C99.3577 286.892 114.976 271.332 134.18 271.332H372.654V147.991H274.26C255.056 147.991 239.438 132.431 239.438 113.309V15.4256H34.8224Z" fill="#434A54"/>
<path d="M380.405 147.991C380.405 147.991 380.385 147.991 380.366 147.991H274.26C255.056 147.991 239.438 132.431 239.438 113.309V7.72281C239.438 4.60317 241.308 1.8109 244.2 0.616963C247.092 -0.576974 250.389 0.0777656 252.607 2.27307L385.379 134.396C387.057 135.801 388.117 137.92 388.117 140.288C388.117 144.544 384.666 147.991 380.405 147.991ZM254.882 26.2673V113.309C254.882 123.939 263.578 132.585 274.279 132.585H361.721L254.882 26.2673Z" fill="#434A54"/>
<path d="M396.179 433.823H134.182C114.977 433.823 99.3594 418.264 99.3594 399.141V306.014C99.3594 286.892 114.977 271.333 134.182 271.333H396.179C415.384 271.333 431.002 286.892 431.002 306.014V399.161C431.002 418.264 415.384 433.823 396.179 433.823ZM134.182 286.738C123.481 286.738 114.785 295.385 114.785 306.014V399.161C114.785 409.791 123.481 418.437 134.182 418.437H396.179C406.861 418.437 415.576 409.791 415.576 399.161V306.014C415.576 295.385 406.881 286.738 396.179 286.738H134.182V286.738Z" fill="#434A54"/>
<path d="M164.299 400.855C160.037 400.855 156.586 397.408 156.586 393.153V323.481C156.586 319.225 160.037 315.778 164.299 315.778H194.031C206.139 315.778 214.913 327.024 214.913 342.526C214.913 358.028 206.12 369.274 194.031 369.274H172.011V393.153C172.011 397.408 168.56 400.855 164.299 400.855ZM172.011 353.868H194.031C194.648 353.868 195.94 353.868 197.347 351.596C198.697 349.401 199.507 346.011 199.507 342.526C199.507 337.076 197.424 331.183 194.05 331.183H172.011V353.868Z" fill="#434A54"/>
<path d="M272.101 400.855H242.369C238.108 400.855 234.656 397.408 234.656 393.153V323.481C234.656 319.225 238.108 315.778 242.369 315.778H272.101C290.611 315.778 303.53 333.263 303.53 358.317C303.53 368.831 301.023 378.748 296.492 386.259C290.785 395.656 282.127 400.855 272.101 400.855ZM250.081 385.45H272.101C276.709 385.45 280.373 383.1 283.284 378.286C286.35 373.222 288.105 365.942 288.105 358.317C288.105 347.417 283.843 331.183 272.101 331.183H250.081V385.45Z" fill="#434A54"/>
<path d="M331.236 400.855C326.975 400.855 323.523 397.408 323.523 393.153V323.481C323.523 319.225 326.975 315.778 331.236 315.778H373.578C377.84 315.778 381.291 319.225 381.291 323.481C381.291 327.736 377.84 331.183 373.578 331.183H338.949V393.153C338.949 397.408 335.497 400.855 331.236 400.855Z" fill="#434A54"/>
<path d="M360.602 362.63H331.236C326.975 362.63 323.523 359.183 323.523 354.927C323.523 350.672 326.975 347.225 331.236 347.225H360.602C364.863 347.225 368.314 350.672 368.314 354.927C368.314 359.183 364.863 362.63 360.602 362.63Z" fill="#434A54"/>
</g>
<g clip-path="url(#clip1)">
<path d="M165.027 400.507C160.778 400.507 157.336 397.068 157.336 392.823V323.325C157.336 319.08 160.778 315.642 165.027 315.642H194.677C206.752 315.642 215.5 326.86 215.5 342.323C215.5 357.786 206.752 369.004 194.677 369.004H172.718V392.823C172.718 397.068 169.276 400.507 165.027 400.507ZM172.718 353.637H194.677C195.292 353.637 196.58 353.637 197.984 351.37C199.33 349.18 200.137 345.8 200.137 342.323C200.137 336.887 198.061 331.009 194.696 331.009H172.718V353.637Z" fill="#1B419E"/>
<path d="M272.528 400.507H242.879C238.629 400.507 235.188 397.068 235.188 392.823V323.325C235.188 319.08 238.629 315.642 242.879 315.642H272.528C290.987 315.642 303.87 333.083 303.87 358.074C303.87 368.562 301.37 378.455 296.851 385.946C291.16 395.339 282.527 400.507 272.528 400.507ZM250.57 385.14H272.528C277.124 385.14 280.777 382.796 283.68 377.994C286.737 372.942 288.487 365.681 288.487 358.074C288.487 347.202 284.238 331.009 272.528 331.009H250.57V385.14Z" fill="#1B419E"/>
<path d="M331.5 400.507C327.25 400.507 323.809 397.068 323.809 392.823V323.325C323.809 319.08 327.25 315.642 331.5 315.642H373.724C377.974 315.642 381.415 319.08 381.415 323.325C381.415 327.57 377.974 331.009 373.724 331.009H339.191V392.823C339.191 397.068 335.749 400.507 331.5 400.507Z" fill="#1B419E"/>
<path d="M360.784 362.396H331.5C327.25 362.396 323.809 358.958 323.809 354.712C323.809 350.467 327.25 347.029 331.5 347.029H360.784C365.033 347.029 368.475 350.467 368.475 354.712C368.475 358.958 365.033 362.396 360.784 362.396Z" fill="#1B419E"/>
</g>
<defs>
<clipPath id="clip0">
<rect width="431" height="492.98" fill="white" transform="translate(0 0.0200195)"/>
</clipPath>
<clipPath id="clip1">
<rect width="224.082" height="84.865" fill="white" transform="translate(157.336 315.642)"/>
</clipPath>
</defs>
</svg>
