<svg width="83" height="83" viewBox="0 0 83 83" fill="none" xmlns="http://www.w3.org/2000/svg">
<path d="M41.476 74.0232C31.5121 74.0232 23.538 68.6385 23.538 68.6385L18.7676 64.9273L15.2697 60.7821C15.2697 60.7821 8.92682 52.0006 8.92682 41.474C8.92682 23.4973 23.4994 8.92659 41.4742 8.92659C59.449 8.92659 74.0216 23.4992 74.0216 41.474C74.0216 59.4488 59.4527 74.0232 41.476 74.0232ZM41.476 2.72717C20.0769 2.72717 2.72741 20.0749 2.72741 41.4758C2.72741 52.0963 8.34936 61.5912 8.34936 61.5912L1.57617 82.2253L22.8079 75.4411C22.8079 75.4411 30.6901 80.2263 41.476 80.2263C62.8751 80.2263 80.2247 62.8786 80.2247 41.4776C80.2247 20.0767 62.8751 2.72717 41.476 2.72717Z" fill="white"/>
<path d="M74.1857 50.2397C69.3452 68.3057 50.7755 79.0271 32.7097 74.1861V74.1861C14.6445 69.3453 3.92395 50.7762 8.76437 32.7109V32.7109C13.6049 14.6453 32.174 3.924 50.2396 8.7645V8.7645C68.3051 13.605 79.0261 32.1742 74.1857 50.2397V50.2397Z" fill="url(#paint0_linear)"/>
<path d="M61.3391 50.6654C61.3833 51.528 61.9148 54.11 59.6141 56.5927C57.3135 59.0772 52.4198 60.2266 50.1026 59.5793C47.7854 58.9319 40.1239 56.9274 35.1291 52.2691C30.1324 47.609 26.0865 42.7042 24.4314 39.0887C22.7763 35.4713 22.8682 33.3251 22.9602 32.3136C23.0521 31.3022 23.5836 26.6163 26.721 24.608C26.721 24.608 27.7674 23.9442 28.3136 23.9442H31.3664C31.3664 23.9442 32.1848 24.0858 32.56 24.9391C32.9351 25.7924 35.5098 31.8392 35.701 32.3044C35.8923 32.7716 36.3925 33.9265 35.5907 34.96C34.7889 35.9936 33.1135 37.9246 33.1135 37.9246C33.1135 37.9246 32.4496 38.5204 33.0252 39.473C33.599 40.4238 35.622 43.5612 38.2665 45.9317C40.9129 48.3023 44.1514 50.0457 45.7661 50.5772C47.3808 51.1087 47.7357 50.4006 48.3537 49.6043C48.9734 48.808 50.8989 46.375 50.8989 46.375C50.8989 46.375 51.5628 45.4003 52.8667 45.998C54.1724 46.5956 60.5208 49.6705 60.5208 49.6705C60.5208 49.6705 61.295 49.8011 61.3391 50.6654Z" fill="white"/>
<defs>
<linearGradient id="paint0_linear" x1="32.7121" y1="74.1838" x2="50.2419" y2="8.76154" gradientUnits="userSpaceOnUse">
<stop stop-color="#40BA57"/>
<stop offset="0.25" stop-color="#40BA57"/>
<stop offset="0.375" stop-color="#40BA58"/>
<stop offset="0.4375" stop-color="#40BB58"/>
<stop offset="0.5" stop-color="#41BB58"/>
<stop offset="0.5312" stop-color="#42BB59"/>
<stop offset="0.5625" stop-color="#42BB59"/>
<stop offset="0.5938" stop-color="#43BB59"/>
<stop offset="0.6094" stop-color="#44BC5A"/>
<stop offset="0.625" stop-color="#44BC5A"/>
<stop offset="0.6406" stop-color="#45BC5A"/>
<stop offset="0.6562" stop-color="#46BC5B"/>
<stop offset="0.6719" stop-color="#46BD5B"/>
<stop offset="0.6875" stop-color="#47BD5C"/>
<stop offset="0.7031" stop-color="#48BD5C"/>
<stop offset="0.7109" stop-color="#49BD5D"/>
<stop offset="0.7188" stop-color="#49BD5D"/>
<stop offset="0.7266" stop-color="#4ABE5D"/>
<stop offset="0.7344" stop-color="#4ABE5D"/>
<stop offset="0.7422" stop-color="#4BBE5E"/>
<stop offset="0.75" stop-color="#4BBE5E"/>
<stop offset="0.7578" stop-color="#4CBE5E"/>
<stop offset="0.7656" stop-color="#4CBF5F"/>
<stop offset="0.7734" stop-color="#4DBF5F"/>
<stop offset="0.7812" stop-color="#4EBF60"/>
<stop offset="0.7891" stop-color="#4EBF60"/>
<stop offset="0.7969" stop-color="#4FBF60"/>
<stop offset="0.8047" stop-color="#50C061"/>
<stop offset="0.8125" stop-color="#51C061"/>
<stop offset="0.8203" stop-color="#51C062"/>
<stop offset="0.8281" stop-color="#52C162"/>
<stop offset="0.8359" stop-color="#53C163"/>
<stop offset="0.8398" stop-color="#54C163"/>
<stop offset="0.8438" stop-color="#54C164"/>
<stop offset="0.8477" stop-color="#55C164"/>
<stop offset="0.8516" stop-color="#55C264"/>
<stop offset="0.8555" stop-color="#56C264"/>
<stop offset="0.8594" stop-color="#56C265"/>
<stop offset="0.8633" stop-color="#57C265"/>
<stop offset="0.8672" stop-color="#57C265"/>
<stop offset="0.8711" stop-color="#58C266"/>
<stop offset="0.875" stop-color="#58C366"/>
<stop offset="0.8789" stop-color="#59C366"/>
<stop offset="0.8828" stop-color="#59C367"/>
<stop offset="0.8867" stop-color="#5AC367"/>
<stop offset="0.8906" stop-color="#5AC367"/>
<stop offset="0.8945" stop-color="#5BC468"/>
<stop offset="0.8984" stop-color="#5BC468"/>
<stop offset="0.9023" stop-color="#5CC468"/>
<stop offset="0.9062" stop-color="#5DC469"/>
<stop offset="0.9102" stop-color="#5DC469"/>
<stop offset="0.9141" stop-color="#5EC56A"/>
<stop offset="0.918" stop-color="#5EC56A"/>
<stop offset="0.9219" stop-color="#5FC56A"/>
<stop offset="0.9258" stop-color="#60C56B"/>
<stop offset="0.9297" stop-color="#60C56B"/>
<stop offset="0.9336" stop-color="#61C66C"/>
<stop offset="0.9375" stop-color="#62C66C"/>
<stop offset="0.9414" stop-color="#62C66D"/>
<stop offset="0.9453" stop-color="#63C66D"/>
<stop offset="0.9492" stop-color="#64C76E"/>
<stop offset="0.9531" stop-color="#64C76E"/>
<stop offset="0.957" stop-color="#65C76E"/>
<stop offset="0.9609" stop-color="#66C76F"/>
<stop offset="0.9688" stop-color="#66C76F"/>
<stop offset="1" stop-color="#66C76F"/>
</linearGradient>
</defs>
</svg>
